<?xml version="1.0" encoding="UTF-8"?>
<!DOCTYPE svg PUBLIC "-//W3C//DTD SVG 1.1//EN" "http://www.w3.org/Graphics/SVG/1.1/DTD/svg11.dtd">
<svg xmlns="http://www.w3.org/2000/svg" version="1.1" width="335px" height="745px" style="shape-rendering:geometricPrecision; text-rendering:geometricPrecision; image-rendering:optimizeQuality; fill-rule:evenodd; clip-rule:evenodd" xmlns:xlink="http://www.w3.org/1999/xlink">
<g><path style="opacity:1" fill="#fcfcfb" d="M 277.5,376.5 C 276.194,381.616 275.527,386.949 275.5,392.5C 275.675,394.621 275.341,396.621 274.5,398.5C 273.883,398.611 273.383,398.944 273,399.5C 272.505,401.473 272.338,403.473 272.5,405.5C 261.728,439.441 239.728,462.941 206.5,476C 186.734,483.149 166.734,484.649 146.5,480.5C 143.727,479.343 140.727,478.676 137.5,478.5C 127.382,476.102 118.049,472.102 109.5,466.5C 109.027,465.094 108.027,464.427 106.5,464.5C 106.027,463.094 105.027,462.427 103.5,462.5C 102.738,460.738 101.404,459.738 99.5,459.5C 99.0269,458.094 98.0269,457.427 96.5,457.5C 94.1667,455.833 92.1667,453.833 90.5,451.5C 89.7377,449.738 88.4044,448.738 86.5,448.5C 84.8333,446.5 83.1667,444.5 81.5,442.5C 81.5,441.167 80.8333,440.5 79.5,440.5C 79.1667,439.833 78.8333,439.167 78.5,438.5C 78.4456,436.368 77.4456,435.035 75.5,434.5C 75.7148,432.821 75.0481,431.821 73.5,431.5C 67.9061,423.641 63.9061,414.974 61.5,405.5C 61.8893,402.447 61.2227,399.78 59.5,397.5C 56.6724,384.687 55.839,371.687 57,358.5C 57.4865,352.889 58.6532,347.556 60.5,342.5C 61.9238,340.485 62.5905,338.152 62.5,335.5C 64.6993,327.872 68.0326,320.872 72.5,314.5C 73.9063,314.027 74.573,313.027 74.5,311.5C 83.9497,296.715 96.283,285.048 111.5,276.5C 113.027,276.573 114.027,275.906 114.5,274.5C 140.462,260.94 167.795,257.773 196.5,265C 247.796,282.472 275.129,318.306 278.5,372.5C 278.489,374.045 278.156,375.378 277.5,376.5 Z"/></g>
<g><path style="opacity:0.643" fill="#88888a" d="M 114.5,274.5 C 114.027,275.906 113.027,276.573 111.5,276.5C 111.973,275.094 112.973,274.427 114.5,274.5 Z"/></g>
<g><path style="opacity:0.239" fill="#646567" d="M 74.5,311.5 C 74.573,313.027 73.9063,314.027 72.5,314.5C 72.427,312.973 73.0937,311.973 74.5,311.5 Z"/></g>
<g><path style="opacity:1" fill="#dbbd78" d="M 254.5,378.5 C 254.5,375.5 254.5,372.5 254.5,369.5C 254.773,367.549 254.107,366.049 252.5,365C 252.833,364.667 253.167,364.333 253.5,364C 252.437,362.812 251.103,362.312 249.5,362.5C 250.038,364.117 250.371,365.784 250.5,367.5C 249.833,371.167 249.167,374.833 248.5,378.5C 249.512,369.587 247.845,361.253 243.5,353.5C 247.473,351.54 247.473,349.54 243.5,347.5C 242.452,348.548 241.452,349.548 240.5,350.5C 235.79,347.435 231.123,344.435 226.5,341.5C 219.028,339.875 211.695,340.208 204.5,342.5C 203.833,342.5 203.167,342.5 202.5,342.5C 202.053,339.476 201.22,339.143 200,341.5C 199.667,340.833 199.333,340.167 199,339.5C 197.32,341.349 195.82,343.349 194.5,345.5C 193.808,344.975 193.308,344.308 193,343.5C 191.483,345.24 189.983,346.906 188.5,348.5C 187.778,349.551 186.778,350.218 185.5,350.5C 190.397,343.199 197.063,338.033 205.5,335C 224.601,331.805 239.768,337.971 251,353.5C 255.28,361.545 256.447,369.879 254.5,378.5 Z"/></g>
<g><path style="opacity:1" fill="#8a6742" d="M 210.5,335.5 C 211.75,335.577 212.583,336.244 213,337.5C 213.333,336.833 213.667,336.167 214,335.5C 215.333,335.5 216.667,335.5 218,335.5C 218.691,337.891 219.691,337.891 221,335.5C 221.5,336.5 222,337.5 222.5,338.5C 218.778,338.887 215.445,339.22 212.5,339.5C 211.808,338.975 211.308,338.308 211,337.5C 209.186,340.87 207.353,341.037 205.5,338C 207.323,338.027 208.99,337.193 210.5,335.5 Z"/></g>
<g><path style="opacity:0.741" fill="#8a8b8b" d="M 62.5,335.5 C 62.5905,338.152 61.9238,340.485 60.5,342.5C 60.4095,339.848 61.0762,337.515 62.5,335.5 Z"/></g>
<g><path style="opacity:1" fill="#8f6e48" d="M 226.5,341.5 C 225.766,340.292 225.433,338.959 225.5,337.5C 227.958,337.227 229.625,338.227 230.5,340.5C 229.139,340.788 227.806,341.121 226.5,341.5 Z"/></g>
<g><path style="opacity:1" fill="#926f49" d="M 232.5,339.5 C 236.692,340.32 238.692,342.653 238.5,346.5C 235.646,345.933 233.813,344.266 233,341.5C 232.667,341.833 232.333,342.167 232,342.5C 231.53,341.423 231.697,340.423 232.5,339.5 Z"/></g>
<g><path style="opacity:1" fill="#f7f8f3" d="M 226.5,341.5 C 231.123,344.435 235.79,347.435 240.5,350.5C 241.833,351.167 242.833,352.167 243.5,353.5C 247.845,361.253 249.512,369.587 248.5,378.5C 246.195,383.774 243.362,388.774 240,393.5C 238.51,394.728 237.01,394.728 235.5,393.5C 233.401,392.63 233.068,391.297 234.5,389.5C 233.386,388.224 232.386,388.224 231.5,389.5C 231.167,389.5 230.833,389.5 230.5,389.5C 229.5,389.5 228.5,389.5 227.5,389.5C 227.03,388.307 226.03,387.64 224.5,387.5C 217.482,388.16 210.482,388.493 203.5,388.5C 201.945,388.278 200.611,387.611 199.5,386.5C 199.535,388.443 199.202,390.443 198.5,392.5C 198.285,394.179 198.952,395.179 200.5,395.5C 208.65,396.493 216.983,396.826 225.5,396.5C 225.62,397.586 226.287,398.253 227.5,398.5C 229.473,397.669 231.473,397.502 233.5,398C 228.113,401.613 222.113,403.446 215.5,403.5C 211.227,402.746 206.894,401.746 202.5,400.5C 201.035,399.263 199.368,398.263 197.5,397.5C 196.713,395.896 195.38,395.229 193.5,395.5C 193.737,394.209 193.404,393.209 192.5,392.5C 190.735,389.291 188.735,386.291 186.5,383.5C 185.031,378.28 184.364,372.946 184.5,367.5C 187.426,356.234 194.092,347.901 204.5,342.5C 211.695,340.208 219.028,339.875 226.5,341.5 Z"/></g>
<g><path style="opacity:1" fill="#eedda3" d="M 214.5,349.5 C 215.833,349.5 217.167,349.5 218.5,349.5C 218.5,348.167 218.5,346.833 218.5,345.5C 217.167,345.5 215.833,345.5 214.5,345.5C 215.713,343.324 217.38,342.991 219.5,344.5C 220.231,346.401 220.231,348.401 219.5,350.5C 217.585,350.784 215.919,350.451 214.5,349.5 Z"/></g>
<g><path style="opacity:1" fill="#906f4b" d="M 202.5,342.5 C 199.601,343.535 197.101,345.202 195,347.5C 193.16,346.167 192.66,346.334 193.5,348C 192.616,349.72 191.283,350.886 189.5,351.5C 188.89,350.609 188.557,349.609 188.5,348.5C 189.983,346.906 191.483,345.24 193,343.5C 193.308,344.308 193.808,344.975 194.5,345.5C 195.82,343.349 197.32,341.349 199,339.5C 199.333,340.167 199.667,340.833 200,341.5C 201.22,339.143 202.053,339.476 202.5,342.5 Z"/></g>
<g><path style="opacity:1" fill="#f0ca63" d="M 214.5,345.5 C 215.833,345.5 217.167,345.5 218.5,345.5C 218.5,346.833 218.5,348.167 218.5,349.5C 217.167,349.5 215.833,349.5 214.5,349.5C 213.646,347.965 213.646,346.632 214.5,345.5 Z"/></g>
<g><path style="opacity:1" fill="#e1daaf" d="M 109.5,335.5 C 120.597,334.849 131.264,336.683 141.5,341C 148.414,343.888 154.581,348.055 160,353.5C 160.471,376.006 151.637,393.84 133.5,407C 114.484,412.879 98.9844,408.046 87,392.5C 78.7985,380.359 75.2985,367.026 76.5,352.5C 86.1628,344.155 97.1628,338.488 109.5,335.5 Z"/></g>
<g><path style="opacity:1" fill="#f9faf6" d="M 158.5,361.5 C 157.833,361.5 157.167,361.5 156.5,361.5C 154.31,359.061 152.81,359.728 152,363.5C 150.294,362.692 149.461,361.359 149.5,359.5C 146.5,359.167 145.167,360.5 145.5,363.5C 143.49,365.317 143.157,367.317 144.5,369.5C 142.493,371.689 141.493,374.355 141.5,377.5C 139.818,380.177 138.151,382.843 136.5,385.5C 137.5,385.5 138.5,385.5 139.5,385.5C 139.232,387.099 139.566,388.432 140.5,389.5C 142.288,390.36 143.955,391.36 145.5,392.5C 133.572,408.373 118.572,411.873 100.5,403C 88.0233,393.556 80.5233,381.056 78,365.5C 77.3333,361.5 77.3333,357.5 78,353.5C 79.7565,352.015 80.9232,352.348 81.5,354.5C 80.5184,360.493 80.8518,366.493 82.5,372.5C 83.0096,374.088 84.0096,375.255 85.5,376C 85.0426,376.414 84.7093,376.914 84.5,377.5C 86.9209,381.34 89.0875,385.34 91,389.5C 94.4387,391.192 96.6053,390.192 97.5,386.5C 95.2539,382.341 92.7539,378.341 90,374.5C 88.8921,368.853 87.8921,363.186 87,357.5C 86.5204,355.867 85.6871,354.534 84.5,353.5C 82.5901,352.316 82.2568,350.816 83.5,349C 109.353,332.526 134.186,334.026 158,353.5C 158.497,356.146 158.664,358.813 158.5,361.5 Z"/></g>
<g><path style="opacity:1" fill="#838487" d="M 101.5,342.5 C 103.465,342.948 103.798,343.948 102.5,345.5C 97.7981,347.84 93.1315,350.173 88.5,352.5C 87.6919,352.192 87.0253,351.692 86.5,351C 88.5165,350.326 90.1832,349.159 91.5,347.5C 92.086,347.709 92.586,348.043 93,348.5C 94.0062,345.11 96.0062,344.11 99,345.5C 99.6979,344.309 100.531,343.309 101.5,342.5 Z"/></g>
<g><path style="opacity:1" fill="#949694" d="M 134.5,344.5 C 136.591,344.318 138.591,344.652 140.5,345.5C 141.386,346.325 141.719,347.325 141.5,348.5C 144.226,348.264 146.559,349.097 148.5,351C 147.975,351.692 147.308,352.192 146.5,352.5C 141.679,350.778 137.679,348.111 134.5,344.5 Z"/></g>
<g><path style="opacity:1" fill="#8c8e8d" d="M 107.5,340.5 C 113.984,340.914 120.317,340.914 126.5,340.5C 126.262,344.099 127.262,344.433 129.5,341.5C 131.23,342.026 132.564,343.026 133.5,344.5C 132.833,344.833 132.167,345.167 131.5,345.5C 122.87,343.219 114.37,342.886 106,344.5C 105.516,342.807 106.016,341.473 107.5,340.5 Z"/></g>
<g><path style="opacity:1" fill="#8d6f47" d="M 243.5,353.5 C 242.833,352.167 241.833,351.167 240.5,350.5C 241.452,349.548 242.452,348.548 243.5,347.5C 247.473,349.54 247.473,351.54 243.5,353.5 Z"/></g>
<g><path style="opacity:1" fill="#eacc72" d="M 116.5,350.5 C 118.912,350.694 119.912,352.027 119.5,354.5C 118.167,354.5 116.833,354.5 115.5,354.5C 115.433,353.041 115.766,351.708 116.5,350.5 Z"/></g>
<g><path style="opacity:1" fill="#99ba8c" d="M 234.5,353.5 C 233.5,353.5 232.5,353.5 231.5,353.5C 231.5,352.5 231.5,351.5 231.5,350.5C 232.5,350.5 233.5,350.5 234.5,350.5C 234.5,351.5 234.5,352.5 234.5,353.5 Z"/></g>
<g><path style="opacity:1" fill="#ccb177" d="M 202.5,342.5 C 203.167,342.5 203.833,342.5 204.5,342.5C 194.092,347.901 187.426,356.234 184.5,367.5C 184.649,366.448 184.483,365.448 184,364.5C 182.644,365.38 181.144,365.714 179.5,365.5C 179.5,368.167 179.5,370.833 179.5,373.5C 180.5,373.5 181.5,373.5 182.5,373.5C 182.5,374.5 182.5,375.5 182.5,376.5C 181.5,376.5 180.5,376.5 179.5,376.5C 179.5,377.5 179.5,378.5 179.5,379.5C 177.755,376.115 177.255,372.448 178,368.5C 178.485,361.516 180.985,355.516 185.5,350.5C 186.778,350.218 187.778,349.551 188.5,348.5C 188.557,349.609 188.89,350.609 189.5,351.5C 191.283,350.886 192.616,349.72 193.5,348C 192.66,346.334 193.16,346.167 195,347.5C 197.101,345.202 199.601,343.535 202.5,342.5 Z"/></g>
<g><path style="opacity:1" fill="#93b787" d="M 150.5,353.5 C 151.5,353.5 152.5,353.5 153.5,353.5C 153.114,357.738 151.448,358.404 148.5,355.5C 149.243,354.818 149.909,354.151 150.5,353.5 Z"/></g>
<g><path style="opacity:1" fill="#a2c696" d="M 234.5,353.5 C 238.995,351.747 241.995,353.247 243.5,358C 240.968,358.612 240.135,360.112 241,362.5C 241.953,360.408 243.286,360.075 245,361.5C 246.135,365.147 246.635,368.814 246.5,372.5C 245.178,372.33 244.011,372.663 243,373.5C 242.827,377.719 241.827,381.719 240,385.5C 240.479,381.556 240.979,377.556 241.5,373.5C 240.022,373.762 238.689,373.429 237.5,372.5C 238.478,371.199 238.145,370.032 236.5,369C 236.645,368.228 236.978,367.561 237.5,367C 235.408,366.047 235.075,364.714 236.5,363C 234.893,361.951 234.227,360.451 234.5,358.5C 233.5,358.5 232.5,358.5 231.5,358.5C 231.31,356.041 232.31,354.374 234.5,353.5 Z"/></g>
<g><path style="opacity:1" fill="#9b774b" d="M 249.5,362.5 C 248.048,360.174 246.714,357.674 245.5,355C 245.613,353.72 246.28,352.887 247.5,352.5C 250.802,355.642 251.468,358.975 249.5,362.5 Z"/></g>
<g><path style="opacity:1" fill="#7c5836" d="M 189.5,351.5 C 188.27,353.297 187.604,355.297 187.5,357.5C 186.448,357.351 185.448,357.517 184.5,358C 184.833,358.333 185.167,358.667 185.5,359C 184.534,360.678 183.201,361.345 181.5,361C 181.94,359.036 182.774,356.87 184,354.5C 184.308,355.308 184.808,355.975 185.5,356.5C 186.452,354.955 186.785,353.288 186.5,351.5C 187.5,351.5 188.5,351.5 189.5,351.5 Z"/></g>
<g><path style="opacity:1" fill="#f0d075" d="M 195.5,362.5 C 193.665,365.842 192.498,369.509 192,373.5C 191.329,374.252 190.496,374.586 189.5,374.5C 188.124,370.897 188.458,367.397 190.5,364C 192.483,360.378 194.65,356.878 197,353.5C 198.241,351.579 199.741,351.246 201.5,352.5C 199.008,355.631 197.008,358.965 195.5,362.5 Z"/></g>
<g><path style="opacity:1" fill="#4c87b5" d="M 123.5,358.5 C 127.505,358.557 131.005,359.89 134,362.5C 134.667,363.833 134.667,365.167 134,366.5C 132.188,367.977 130.355,369.31 128.5,370.5C 125.143,367.501 122.476,363.834 120.5,359.5C 121.325,358.614 122.325,358.281 123.5,358.5 Z"/></g>
<g><path style="opacity:1" fill="#97b88d" d="M 156.5,361.5 C 156.762,362.978 156.429,364.311 155.5,365.5C 152.148,365.579 148.814,364.912 145.5,363.5C 145.167,360.5 146.5,359.167 149.5,359.5C 149.461,361.359 150.294,362.692 152,363.5C 152.81,359.728 154.31,359.061 156.5,361.5 Z"/></g>
<g><path style="opacity:1" fill="#4b87b4" d="M 115.5,357.5 C 112.985,362.543 109.985,367.21 106.5,371.5C 104.77,369.921 102.936,368.254 101,366.5C 99.9581,363.196 101.125,361.029 104.5,360C 108.07,358.69 111.737,357.857 115.5,357.5 Z"/></g>
<g><path style="opacity:1" fill="#1e4966" d="M 116.5,356.5 C 117.004,359.453 118.004,362.286 119.5,365C 117.75,366.319 115.75,366.819 113.5,366.5C 113.5,368.167 113.5,369.833 113.5,371.5C 113.918,372.222 114.584,372.722 115.5,373C 112.806,374.374 110.139,375.541 107.5,376.5C 107.567,377.959 107.234,379.292 106.5,380.5C 104.585,380.784 102.919,380.451 101.5,379.5C 103.167,376.833 104.833,374.167 106.5,371.5C 109.985,367.21 112.985,362.543 115.5,357.5C 116.167,357.5 116.5,357.167 116.5,356.5 Z"/></g>
<g><path style="opacity:1" fill="#4e8ab6" d="M 214.5,358.5 C 212.328,362.259 209.994,365.926 207.5,369.5C 198.264,366.475 198.264,363.141 207.5,359.5C 209.903,359.552 212.236,359.219 214.5,358.5 Z"/></g>
<g><path style="opacity:1" fill="#4d88b6" d="M 224.5,359.5 C 228.378,359.619 231.045,361.453 232.5,365C 231.623,367.378 229.956,368.878 227.5,369.5C 226.325,369.719 225.325,369.386 224.5,368.5C 222.5,365.5 220.5,362.5 218.5,359.5C 220.401,358.769 222.401,358.769 224.5,359.5 Z"/></g>
<g><path style="opacity:1" fill="#edd183" d="M 84.5,353.5 C 85.6871,354.534 86.5204,355.867 87,357.5C 87.8921,363.186 88.8921,368.853 90,374.5C 92.7539,378.341 95.2539,382.341 97.5,386.5C 96.6053,390.192 94.4387,391.192 91,389.5C 89.0875,385.34 86.9209,381.34 84.5,377.5C 84.7093,376.914 85.0426,376.414 85.5,376C 84.0096,375.255 83.0096,374.088 82.5,372.5C 80.8518,366.493 80.5184,360.493 81.5,354.5C 82.391,353.89 83.391,353.557 84.5,353.5 Z"/></g>
<g><path style="opacity:1" fill="#788084" d="M 218.5,365.5 C 219.341,367.379 219.675,369.379 219.5,371.5C 215.87,372.062 215.203,373.395 217.5,375.5C 214.167,375.5 210.833,375.5 207.5,375.5C 209.789,374.942 211.789,373.776 213.5,372C 211.175,366.846 212.842,364.679 218.5,365.5 Z"/></g>
<g><path style="opacity:1" fill="#9c7746" d="M 249.5,362.5 C 251.103,362.312 252.437,362.812 253.5,364C 253.167,364.333 252.833,364.667 252.5,365C 254.107,366.049 254.773,367.549 254.5,369.5C 253.417,369.539 252.417,369.873 251.5,370.5C 251.036,369.364 250.702,368.364 250.5,367.5C 250.371,365.784 250.038,364.117 249.5,362.5 Z"/></g>
<g><path style="opacity:1" fill="#dae0e2" d="M 224.5,359.5 C 222.401,358.769 220.401,358.769 218.5,359.5C 220.5,362.5 222.5,365.5 224.5,368.5C 225.325,369.386 226.325,369.719 227.5,369.5C 227.929,373.024 229.429,376.024 232,378.5C 232.494,380.134 232.66,381.801 232.5,383.5C 222.177,382.328 211.844,382.328 201.5,383.5C 201.5,382.167 201.5,380.833 201.5,379.5C 203.167,379.5 204.833,379.5 206.5,379.5C 213.2,379.83 219.866,379.497 226.5,378.5C 226.167,377.833 225.833,377.167 225.5,376.5C 222.914,375.52 220.247,375.187 217.5,375.5C 215.203,373.395 215.87,372.062 219.5,371.5C 219.675,369.379 219.341,367.379 218.5,365.5C 216.93,363.149 216.097,360.482 216,357.5C 215.617,358.056 215.117,358.389 214.5,358.5C 212.236,359.219 209.903,359.552 207.5,359.5C 208.918,357.692 210.918,357.025 213.5,357.5C 213.5,356.167 213.5,354.833 213.5,353.5C 215.439,352.654 217.439,352.154 219.5,352C 218.624,353.585 217.291,354.585 215.5,355C 218.584,356.62 221.584,358.12 224.5,359.5 Z"/></g>
<g><path style="opacity:1" fill="#224a64" d="M 218.5,365.5 C 212.842,364.679 211.175,366.846 213.5,372C 211.789,373.776 209.789,374.942 207.5,375.5C 207.567,376.959 207.234,378.292 206.5,379.5C 204.833,379.5 203.167,379.5 201.5,379.5C 203.5,376.167 205.5,372.833 207.5,369.5C 209.994,365.926 212.328,362.259 214.5,358.5C 215.117,358.389 215.617,358.056 216,357.5C 216.097,360.482 216.93,363.149 218.5,365.5 Z"/></g>
<g><path style="opacity:1" fill="#777d81" d="M 127.5,376.5 C 120.833,376.5 114.167,376.5 107.5,376.5C 110.139,375.541 112.806,374.374 115.5,373C 114.584,372.722 113.918,372.222 113.5,371.5C 114.434,370.432 114.768,369.099 114.5,367.5C 116.5,367.5 118.5,367.5 120.5,367.5C 120.5,368.833 120.5,370.167 120.5,371.5C 119.167,371.5 117.833,371.5 116.5,371.5C 116.5,372.833 116.5,374.167 116.5,375.5C 120.371,375.185 124.038,375.518 127.5,376.5 Z"/></g>
<g><path style="opacity:1" fill="#f2c860" d="M 184.5,367.5 C 184.364,372.946 185.031,378.28 186.5,383.5C 185.348,382.375 184.348,382.375 183.5,383.5C 182.5,383.5 181.5,383.5 180.5,383.5C 180.768,381.901 180.434,380.568 179.5,379.5C 179.5,378.5 179.5,377.5 179.5,376.5C 180.5,376.5 181.5,376.5 182.5,376.5C 182.5,375.5 182.5,374.5 182.5,373.5C 181.5,373.5 180.5,373.5 179.5,373.5C 179.5,370.833 179.5,368.167 179.5,365.5C 181.144,365.714 182.644,365.38 184,364.5C 184.483,365.448 184.649,366.448 184.5,367.5 Z"/></g>
<g><path style="opacity:1" fill="#f5ecc7" d="M 195.5,362.5 C 193.784,369.746 192.451,377.08 191.5,384.5C 189.817,381.398 189.151,378.064 189.5,374.5C 190.496,374.586 191.329,374.252 192,373.5C 192.498,369.509 193.665,365.842 195.5,362.5 Z"/></g>
<g><path style="opacity:1" fill="#e0e6e9" d="M 116.5,356.5 C 116.56,355.957 116.893,355.624 117.5,355.5C 119.444,356.801 121.444,357.801 123.5,358.5C 122.325,358.281 121.325,358.614 120.5,359.5C 122.476,363.834 125.143,367.501 128.5,370.5C 130.489,373.806 132.489,377.139 134.5,380.5C 132.604,381.466 130.604,381.799 128.5,381.5C 128.5,381.167 128.5,380.833 128.5,380.5C 128.167,379.167 127.833,377.833 127.5,376.5C 124.038,375.518 120.371,375.185 116.5,375.5C 116.5,374.167 116.5,372.833 116.5,371.5C 117.833,371.5 119.167,371.5 120.5,371.5C 120.5,370.167 120.5,368.833 120.5,367.5C 118.5,367.5 116.5,367.5 114.5,367.5C 114.768,369.099 114.434,370.432 113.5,371.5C 113.5,369.833 113.5,368.167 113.5,366.5C 115.75,366.819 117.75,366.319 119.5,365C 118.004,362.286 117.004,359.453 116.5,356.5 Z"/></g>
<g><path style="opacity:1" fill="#454543" d="M 107.5,376.5 C 114.167,376.5 120.833,376.5 127.5,376.5C 127.833,377.833 128.167,379.167 128.5,380.5C 121.167,380.5 113.833,380.5 106.5,380.5C 107.234,379.292 107.567,377.959 107.5,376.5 Z"/></g>
<g><path style="opacity:1" fill="#98ba91" d="M 140.5,389.5 C 139.566,388.432 139.232,387.099 139.5,385.5C 138.5,385.5 137.5,385.5 136.5,385.5C 138.151,382.843 139.818,380.177 141.5,377.5C 143.124,377.36 144.29,378.027 145,379.5C 146,377.5 147,375.5 148,373.5C 148.333,374.167 148.667,374.833 149,375.5C 149.71,374.027 150.876,373.36 152.5,373.5C 152.785,375.288 152.452,376.955 151.5,378.5C 148.536,376.879 146.536,377.712 145.5,381C 147.044,380.513 148.71,380.013 150.5,379.5C 151.037,384.436 149.537,385.436 146,382.5C 145.228,382.645 144.561,382.978 144,383.5C 143.692,382.692 143.192,382.025 142.5,381.5C 141.643,382.736 140.977,384.069 140.5,385.5C 141.718,385.109 142.552,385.776 143,387.5C 143.689,386.643 144.522,385.977 145.5,385.5C 146.452,387.045 146.785,388.712 146.5,390.5C 144.8,390.374 143.3,389.707 142,388.5C 141.235,388.57 140.735,388.903 140.5,389.5 Z"/></g>
<g><path style="opacity:1" fill="#4e5150" d="M 207.5,375.5 C 210.833,375.5 214.167,375.5 217.5,375.5C 220.247,375.187 222.914,375.52 225.5,376.5C 225.833,377.167 226.167,377.833 226.5,378.5C 219.866,379.497 213.2,379.83 206.5,379.5C 207.234,378.292 207.567,376.959 207.5,375.5 Z"/></g>
<g><path style="opacity:1" fill="#f3c660" d="M 250.5,367.5 C 250.702,368.364 251.036,369.364 251.5,370.5C 252.417,369.873 253.417,369.539 254.5,369.5C 254.5,372.5 254.5,375.5 254.5,378.5C 254.5,379.5 254.5,380.5 254.5,381.5C 253.1,382.1 252.1,383.1 251.5,384.5C 250.833,384.5 250.167,384.5 249.5,384.5C 248.909,383.849 248.243,383.182 247.5,382.5C 248.246,381.264 248.579,379.93 248.5,378.5C 249.167,374.833 249.833,371.167 250.5,367.5 Z"/></g>
<g><path style="opacity:1" fill="#754b20" d="M 250.5,375.5 C 252.337,375.639 252.67,376.306 251.5,377.5C 250.702,377.043 250.369,376.376 250.5,375.5 Z"/></g>
<g><path style="opacity:1" fill="#a5a7a5" d="M 101.5,379.5 C 102.919,380.451 104.585,380.784 106.5,380.5C 113.833,380.5 121.167,380.5 128.5,380.5C 128.5,380.833 128.5,381.167 128.5,381.5C 119.143,381.832 109.81,381.498 100.5,380.5C 100.624,379.893 100.957,379.56 101.5,379.5 Z"/></g>
<g><path style="opacity:1" fill="#e1efd8" d="M 156.5,361.5 C 157.167,361.5 157.833,361.5 158.5,361.5C 157.354,365.394 156.521,369.394 156,373.5C 154.667,376.833 153.333,380.167 152,383.5C 150.357,386.961 148.19,389.961 145.5,392.5C 143.955,391.36 142.288,390.36 140.5,389.5C 140.735,388.903 141.235,388.57 142,388.5C 143.3,389.707 144.8,390.374 146.5,390.5C 146.785,388.712 146.452,387.045 145.5,385.5C 144.522,385.977 143.689,386.643 143,387.5C 142.552,385.776 141.718,385.109 140.5,385.5C 140.977,384.069 141.643,382.736 142.5,381.5C 143.192,382.025 143.692,382.692 144,383.5C 144.561,382.978 145.228,382.645 146,382.5C 149.537,385.436 151.037,384.436 150.5,379.5C 148.71,380.013 147.044,380.513 145.5,381C 146.536,377.712 148.536,376.879 151.5,378.5C 152.452,376.955 152.785,375.288 152.5,373.5C 150.876,373.36 149.71,374.027 149,375.5C 148.667,374.833 148.333,374.167 148,373.5C 147,375.5 146,377.5 145,379.5C 144.29,378.027 143.124,377.36 141.5,377.5C 141.493,374.355 142.493,371.689 144.5,369.5C 143.157,367.317 143.49,365.317 145.5,363.5C 148.814,364.912 152.148,365.579 155.5,365.5C 156.429,364.311 156.762,362.978 156.5,361.5 Z"/></g>
<g><path style="opacity:1" fill="#92b389" d="M 144.5,369.5 C 144.167,366.5 145.5,365.167 148.5,365.5C 148.413,368.598 148.913,368.932 150,366.5C 150.333,367.5 150.667,368.5 151,369.5C 151.508,367.096 152.675,366.429 154.5,367.5C 153.975,368.192 153.308,368.692 152.5,369C 153.308,369.308 153.975,369.808 154.5,370.5C 153.467,371.452 152.3,371.452 151,370.5C 150.055,370.905 149.388,371.572 149,372.5C 148.411,370.137 146.911,369.137 144.5,369.5 Z"/></g>
<g><path style="opacity:0.776" fill="#a1a1a1" d="M 277.5,376.5 C 277.844,382.098 277.178,387.432 275.5,392.5C 275.527,386.949 276.194,381.616 277.5,376.5 Z"/></g>
<g><path style="opacity:1" fill="#d6be8a" d="M 248.5,378.5 C 248.579,379.93 248.246,381.264 247.5,382.5C 248.243,383.182 248.909,383.849 249.5,384.5C 246.713,386.314 244.713,388.814 243.5,392C 243.63,393.059 244.13,393.892 245,394.5C 245.667,392.5 247,391.167 249,390.5C 249.573,388.359 250.406,386.359 251.5,384.5C 252.1,383.1 253.1,382.1 254.5,381.5C 252.266,390.002 247.599,396.669 240.5,401.5C 240.5,401.167 240.5,400.833 240.5,400.5C 241.716,398.549 243.382,397.049 245.5,396C 244.069,395.535 242.903,394.701 242,393.5C 239.8,394.651 238.3,396.318 237.5,398.5C 236.167,398.5 235.5,399.167 235.5,400.5C 231.389,399.578 228.722,401.244 227.5,405.5C 225.795,402.713 224.628,403.046 224,406.5C 223.667,405.833 223.333,405.167 223,404.5C 220.646,404.892 218.146,404.892 215.5,404.5C 215.5,404.167 215.5,403.833 215.5,403.5C 222.113,403.446 228.113,401.613 233.5,398C 231.473,397.502 229.473,397.669 227.5,398.5C 226.287,398.253 225.62,397.586 225.5,396.5C 228.833,396.5 232.167,396.5 235.5,396.5C 235.5,395.5 235.5,394.5 235.5,393.5C 237.01,394.728 238.51,394.728 240,393.5C 243.362,388.774 246.195,383.774 248.5,378.5 Z"/></g>
<g><path style="opacity:1" fill="#a0a0a3" d="M 133.5,390.5 C 132.257,386.908 133.257,386.075 136.5,388C 135.529,389.041 134.529,389.874 133.5,390.5 Z"/></g>
<g><path style="opacity:1" fill="#d3c197" d="M 186.5,383.5 C 188.735,386.291 190.735,389.291 192.5,392.5C 191.833,392.5 191.167,392.5 190.5,392.5C 189.984,390.8 188.984,389.467 187.5,388.5C 186.548,386.955 186.215,385.288 186.5,383.5 Z"/></g>
<g><path style="opacity:1" fill="#886941" d="M 249.5,384.5 C 250.167,384.5 250.833,384.5 251.5,384.5C 250.406,386.359 249.573,388.359 249,390.5C 247,391.167 245.667,392.5 245,394.5C 244.13,393.892 243.63,393.059 243.5,392C 244.713,388.814 246.713,386.314 249.5,384.5 Z"/></g>
<g><path style="opacity:1" fill="#86653c" d="M 186.5,383.5 C 186.215,385.288 186.548,386.955 187.5,388.5C 188.984,389.467 189.984,390.8 190.5,392.5C 189.25,392.577 188.417,393.244 188,394.5C 186.365,391.368 184.532,388.368 182.5,385.5C 182.863,384.817 183.196,384.15 183.5,383.5C 184.348,382.375 185.348,382.375 186.5,383.5 Z"/></g>
<g><path style="opacity:1" fill="#ceb16d" d="M 227.5,389.5 C 225.716,388.28 224.05,388.28 222.5,389.5C 221.596,390.209 221.263,391.209 221.5,392.5C 220.533,393.806 219.199,394.473 217.5,394.5C 216.234,393.087 215.568,391.754 215.5,390.5C 214.571,391.689 214.238,393.022 214.5,394.5C 213.833,394.5 213.5,394.167 213.5,393.5C 213.167,391.167 211.833,389.833 209.5,389.5C 208.041,389.433 206.708,389.766 205.5,390.5C 204.735,390.077 203.902,389.743 203,389.5C 201.877,391.1 200.377,392.1 198.5,392.5C 199.202,390.443 199.535,388.443 199.5,386.5C 200.611,387.611 201.945,388.278 203.5,388.5C 210.482,388.493 217.482,388.16 224.5,387.5C 226.03,387.64 227.03,388.307 227.5,389.5 Z"/></g>
<g><path style="opacity:1" fill="#787978" d="M 98.5,388.5 C 99.2506,387.427 100.251,387.26 101.5,388C 102.333,389.5 103.5,390.667 105,391.5C 105.667,392.5 105.667,393.5 105,394.5C 102.665,392.6 100.498,390.6 98.5,388.5 Z"/></g>
<g><path style="opacity:1" fill="#f5c953" d="M 205.5,390.5 C 205.413,393.598 205.913,393.932 207,391.5C 207.49,392.793 207.657,394.127 207.5,395.5C 205.167,395.5 202.833,395.5 200.5,395.5C 198.952,395.179 198.285,394.179 198.5,392.5C 200.377,392.1 201.877,391.1 203,389.5C 203.902,389.743 204.735,390.077 205.5,390.5 Z"/></g>
<g><path style="opacity:1" fill="#7e807e" d="M 133.5,390.5 C 131.472,393.837 128.472,396.17 124.5,397.5C 123.614,396.675 123.281,395.675 123.5,394.5C 124.873,394.657 126.207,394.49 127.5,394C 129.159,392.159 131.159,390.992 133.5,390.5 Z"/></g>
<g><path style="opacity:1" fill="#8d8e8f" d="M 107.5,393.5 C 111.791,395.793 116.291,396.46 121,395.5C 121.692,396.025 122.192,396.692 122.5,397.5C 117.71,398.888 113.043,398.554 108.5,396.5C 107.614,395.675 107.281,394.675 107.5,393.5 Z"/></g>
<g><path style="opacity:1" fill="#e2c271" d="M 179.5,379.5 C 180.434,380.568 180.768,381.901 180.5,383.5C 181.5,383.5 182.5,383.5 183.5,383.5C 183.196,384.15 182.863,384.817 182.5,385.5C 184.532,388.368 186.365,391.368 188,394.5C 188.417,393.244 189.25,392.577 190.5,392.5C 191.167,392.5 191.833,392.5 192.5,392.5C 193.404,393.209 193.737,394.209 193.5,395.5C 192.738,397.262 191.404,398.262 189.5,398.5C 183.795,393.424 180.462,387.091 179.5,379.5 Z"/></g>
<g><path style="opacity:1" fill="#e6bf67" d="M 222.5,389.5 C 224.05,388.28 225.716,388.28 227.5,389.5C 228.5,389.5 229.5,389.5 230.5,389.5C 229.359,390.339 228.026,391.006 226.5,391.5C 225.571,392.689 225.238,394.022 225.5,395.5C 228.518,395.665 231.518,395.498 234.5,395C 233.051,393.883 231.384,393.216 229.5,393C 231.983,392.433 232.65,391.267 231.5,389.5C 232.386,388.224 233.386,388.224 234.5,389.5C 233.068,391.297 233.401,392.63 235.5,393.5C 235.5,394.5 235.5,395.5 235.5,396.5C 232.167,396.5 228.833,396.5 225.5,396.5C 216.983,396.826 208.65,396.493 200.5,395.5C 202.833,395.5 205.167,395.5 207.5,395.5C 207.657,394.127 207.49,392.793 207,391.5C 205.913,393.932 205.413,393.598 205.5,390.5C 206.708,389.766 208.041,389.433 209.5,389.5C 211.833,389.833 213.167,391.167 213.5,393.5C 213.5,394.167 213.833,394.5 214.5,394.5C 215.348,395.625 216.348,395.625 217.5,394.5C 219.199,394.473 220.533,393.806 221.5,392.5C 222.738,392.81 222.738,393.31 221.5,394C 222.448,394.483 223.448,394.649 224.5,394.5C 224.598,392.447 223.931,390.78 222.5,389.5 Z"/></g>
<g><path style="opacity:1" fill="#f6c64f" d="M 230.5,389.5 C 230.833,389.5 231.167,389.5 231.5,389.5C 232.65,391.267 231.983,392.433 229.5,393C 231.384,393.216 233.051,393.883 234.5,395C 231.518,395.498 228.518,395.665 225.5,395.5C 225.238,394.022 225.571,392.689 226.5,391.5C 228.026,391.006 229.359,390.339 230.5,389.5 Z"/></g>
<g><path style="opacity:1" fill="#75523d" d="M 217.5,394.5 C 216.348,395.625 215.348,395.625 214.5,394.5C 214.238,393.022 214.571,391.689 215.5,390.5C 215.568,391.754 216.234,393.087 217.5,394.5 Z"/></g>
<g><path style="opacity:1" fill="#896841" d="M 209.5,389.5 C 211.833,389.833 213.167,391.167 213.5,393.5C 211.958,394.301 210.292,394.634 208.5,394.5C 208.366,392.708 208.699,391.042 209.5,389.5 Z"/></g>
<g><path style="opacity:1" fill="#714c31" d="M 222.5,389.5 C 223.931,390.78 224.598,392.447 224.5,394.5C 223.448,394.649 222.448,394.483 221.5,394C 222.738,393.31 222.738,392.81 221.5,392.5C 221.263,391.209 221.596,390.209 222.5,389.5 Z"/></g>
<g><path style="opacity:1" fill="#907049" d="M 240.5,400.5 C 239.5,399.833 238.5,399.167 237.5,398.5C 238.3,396.318 239.8,394.651 242,393.5C 242.903,394.701 244.069,395.535 245.5,396C 243.382,397.049 241.716,398.549 240.5,400.5 Z"/></g>
<g><path style="opacity:1" fill="#765735" d="M 197.5,397.5 C 196.766,398.708 196.433,400.041 196.5,401.5C 192.613,399.649 192.947,398.316 197.5,397.5 Z"/></g>
<g><path style="opacity:0.816" fill="#959ea3" d="M 59.5,397.5 C 61.2227,399.78 61.8893,402.447 61.5,405.5C 60.469,403.039 59.8023,400.373 59.5,397.5 Z"/></g>
<g><path style="opacity:0.835" fill="#999697" d="M 274.5,398.5 C 274.279,401.067 273.612,403.401 272.5,405.5C 272.338,403.473 272.505,401.473 273,399.5C 273.383,398.944 273.883,398.611 274.5,398.5 Z"/></g>
<g><path style="opacity:1" fill="#858585" d="M 109.5,399.5 C 114.575,400.703 119.408,400.703 124,399.5C 125.169,400.009 126.002,400.842 126.5,402C 122.677,403.348 118.844,403.848 115,403.5C 112.708,403.219 110.542,402.552 108.5,401.5C 108.863,400.817 109.196,400.15 109.5,399.5 Z"/></g>
<g><path style="opacity:1" fill="#91744d" d="M 197.5,397.5 C 199.368,398.263 201.035,399.263 202.5,400.5C 202.167,401.833 201.833,403.167 201.5,404.5C 200.732,403.737 200.232,402.737 200,401.5C 199.147,403.603 197.98,403.603 196.5,401.5C 196.433,400.041 196.766,398.708 197.5,397.5 Z"/></g>
<g><path style="opacity:1" fill="#dabc7a" d="M 193.5,395.5 C 195.38,395.229 196.713,395.896 197.5,397.5C 192.947,398.316 192.613,399.649 196.5,401.5C 197.98,403.603 199.147,403.603 200,401.5C 200.232,402.737 200.732,403.737 201.5,404.5C 201.833,403.167 202.167,401.833 202.5,400.5C 206.894,401.746 211.227,402.746 215.5,403.5C 215.5,403.833 215.5,404.167 215.5,404.5C 215.5,405.833 215.5,407.167 215.5,408.5C 217.677,408.414 219.677,407.747 221.5,406.5C 223.823,407.831 225.823,407.498 227.5,405.5C 228.789,406.501 230.122,406.334 231.5,405C 230.289,404.107 230.289,403.274 231.5,402.5C 232.883,405.076 233.717,404.742 234,401.5C 236.355,404.13 236.855,403.797 235.5,400.5C 235.5,399.167 236.167,398.5 237.5,398.5C 238.5,399.167 239.5,399.833 240.5,400.5C 240.5,400.833 240.5,401.167 240.5,401.5C 224.793,411.946 208.793,412.113 192.5,402C 191.29,400.961 190.29,399.794 189.5,398.5C 191.404,398.262 192.738,397.262 193.5,395.5 Z"/></g>
<g><path style="opacity:1" fill="#7e5c3b" d="M 227.5,405.5 C 225.823,407.498 223.823,407.831 221.5,406.5C 219.677,407.747 217.677,408.414 215.5,408.5C 215.5,407.167 215.5,405.833 215.5,404.5C 218.146,404.892 220.646,404.892 223,404.5C 223.333,405.167 223.667,405.833 224,406.5C 224.628,403.046 225.795,402.713 227.5,405.5 Z"/></g>
<g><path style="opacity:1" fill="#7d5633" d="M 208.5,405.5 C 210.818,402.991 211.651,403.657 211,407.5C 210.005,406.934 209.172,406.267 208.5,405.5 Z"/></g>
<g><path style="opacity:1" fill="#82633f" d="M 208.5,405.5 C 207.883,405.611 207.383,405.944 207,406.5C 205.213,404.693 203.38,404.027 201.5,404.5C 203.456,402.103 205.29,402.103 207,404.5C 208.107,403.288 208.607,403.621 208.5,405.5 Z"/></g>
<g><path style="opacity:1" fill="#906c42" d="M 235.5,400.5 C 236.855,403.797 236.355,404.13 234,401.5C 233.717,404.742 232.883,405.076 231.5,402.5C 230.289,403.274 230.289,404.107 231.5,405C 230.122,406.334 228.789,406.501 227.5,405.5C 228.722,401.244 231.389,399.578 235.5,400.5 Z"/></g>
<g><path style="opacity:0.894" fill="#838383" d="M 73.5,431.5 C 75.0481,431.821 75.7148,432.821 75.5,434.5C 74.5987,433.71 73.9321,432.71 73.5,431.5 Z"/></g>
<g><path style="opacity:0.91" fill="#797979" d="M 75.5,434.5 C 77.4456,435.035 78.4456,436.368 78.5,438.5C 77.0256,437.564 76.0256,436.23 75.5,434.5 Z"/></g>
<g><path style="opacity:0.561" fill="#575757" d="M 79.5,440.5 C 80.8333,440.5 81.5,441.167 81.5,442.5C 80.5,442.167 79.8333,441.5 79.5,440.5 Z"/></g>
<g><path style="opacity:0.478" fill="#5a5a5a" d="M 86.5,448.5 C 88.4044,448.738 89.7377,449.738 90.5,451.5C 88.5956,451.262 87.2623,450.262 86.5,448.5 Z"/></g>
<g><path style="opacity:0.569" fill="#656565" d="M 96.5,457.5 C 98.0269,457.427 99.0269,458.094 99.5,459.5C 97.9731,459.573 96.9731,458.906 96.5,457.5 Z"/></g>
<g><path style="opacity:0.82" fill="#8a8a8a" d="M 99.5,459.5 C 101.404,459.738 102.738,460.738 103.5,462.5C 101.596,462.262 100.262,461.262 99.5,459.5 Z"/></g>
<g><path style="opacity:0.396" fill="#7d7d7d" d="M 103.5,462.5 C 105.027,462.427 106.027,463.094 106.5,464.5C 104.973,464.573 103.973,463.906 103.5,462.5 Z"/></g>
<g><path style="opacity:0.333" fill="#767676" d="M 106.5,464.5 C 108.027,464.427 109.027,465.094 109.5,466.5C 107.973,466.573 106.973,465.906 106.5,464.5 Z"/></g>
<g><path style="opacity:0.769" fill="#929292" d="M 137.5,478.5 C 140.727,478.676 143.727,479.343 146.5,480.5C 143.171,480.785 140.171,480.118 137.5,478.5 Z"/></g>
</svg>
